<svg id="svg" fill="#000000" stroke="#000000" width="800" height="800" version="1.1" viewBox="143 143 514 514" xmlns="http://www.w3.org/2000/svg" stroke-width="0">
    <g id="IconSvg_bgCarrier" stroke-width="0"></g>
    <g id="IconSvg_tracerCarrier" stroke-linecap="round" stroke-linejoin="round" stroke="#CCCCCC" stroke-width="0">
      <path xmlns="http://www.w3.org/2000/svg" d="m345.84 328.21c0-29.867 24.293-54.16 54.16-54.16s54.16 24.293 54.16 54.16c0 29.859-24.293 54.16-54.16 54.16-29.867-0.003907-54.16-24.301-54.16-54.16zm178.44 196.48c-0.40625 0.46875-1.3203 1.2578-2.7734 1.2578h-243.01c-1.457 0-2.3633-0.78516-2.7773-1.2578-0.76562-0.875-1.1133-2.0625-0.95312-3.2539 6.8477-51.277 60.684-89.949 125.23-89.949 64.547 0 118.39 38.672 125.24 89.949 0.15234 1.1914-0.19531 2.3828-0.96094 3.2539z"></path>

      </g>
     <g id="IconSvg_iconCarrier">
      <path xmlns="http://www.w3.org/2000/svg" d="m345.84 328.21c0-29.867 24.293-54.16 54.16-54.16s54.16 24.293 54.16 54.16c0 29.859-24.293 54.16-54.16 54.16-29.867-0.003907-54.16-24.301-54.16-54.16zm178.44 196.48c-0.40625 0.46875-1.3203 1.2578-2.7734 1.2578h-243.01c-1.457 0-2.3633-0.78516-2.7773-1.2578-0.76562-0.875-1.1133-2.0625-0.95312-3.2539 6.8477-51.277 60.684-89.949 125.23-89.949 64.547 0 118.39 38.672 125.24 89.949 0.15234 1.1914-0.19531 2.3828-0.96094 3.2539z"></path>

      </g>
      </svg>